<svg width="1178" height="1212" viewBox="0 0 1178 1212" fill="none" xmlns="http://www.w3.org/2000/svg">
<path d="M727.674 301.521L725.572 299.484L248.6 241.108L109.411 578.999L451.638 920.167L929.756 971.125L1067.71 641.07L1071.84 635.558L727.674 301.521ZM452.673 895.484L130.763 574.537L257.697 267.365L580.799 589.074L452.673 895.484ZM280.447 264.31L717.051 316.667L1033.19 623.443L595.795 578.201L280.447 264.31ZM918.329 950.971L468.792 904.157L597.147 596.972L1046.72 643.753L918.329 950.971Z" fill="#97004C"/>
<path d="M1033.19 623.407L595.803 578.331L280.427 264.327L717.091 316.633L1033.19 623.407Z" fill="#F2CFFF"/>
<path d="M580.765 589.034L452.693 895.467L130.73 574.497L257.663 267.325L580.765 589.034Z" fill="#FF69B5"/>
<path d="M1046.72 643.753L918.329 950.971L468.792 904.156L597.207 596.922L1046.72 643.753Z" fill="#FF69B5"/>
</svg>
