<svg width="868" height="967" viewBox="0 0 868 967" fill="none" xmlns="http://www.w3.org/2000/svg">
<path d="M749.336 797.343C729.77 805.335 709.118 808.832 688.536 807.639C652.808 805.607 618.892 789.706 592.186 762.467C565.479 735.228 547.517 698.217 541.158 657.322L749.336 797.343Z" fill="#FF69B5"/>
<path d="M768.166 788.441L767.529 788.767L538.919 635.002C537.242 600.76 543.739 566.484 557.693 535.965C571.647 505.445 592.514 479.871 617.987 462.071L624.658 457.288L558.878 327.847L183.6 7.27372L179.165 10.3766C137.091 39.8603 101.892 81.0787 76.8128 130.231C51.7331 179.384 37.5801 234.889 35.6587 291.629C33.7374 348.369 44.1094 404.519 65.8186 454.9C87.5278 505.281 119.875 548.273 159.879 579.912L501.321 872.948C542.291 916.508 593.407 945.133 648.509 955.375C703.612 965.617 760.353 957.039 811.896 930.675L819.014 927.025L768.166 788.441ZM749.33 797.446C729.765 805.438 709.112 808.935 688.53 807.741C652.802 805.709 618.886 789.809 592.18 762.57C565.474 735.331 547.512 698.319 541.152 657.425L749.33 797.446ZM169.057 565.329L168.825 565.136C130.636 534.809 99.7885 493.637 79.1309 445.423C48.7948 374.358 42.5895 292.198 61.7353 215.103C80.881 138.008 123.992 71.5581 182.589 28.8225L544.486 337.997C511.747 362.53 483.435 394.348 461.213 431.583C438.991 468.818 423.306 510.721 415.079 554.833C406.852 598.944 406.248 644.377 413.302 688.463C420.357 732.55 434.928 774.403 456.161 811.567L169.057 565.329ZM681.174 941.185C623.079 937.981 567.668 913.369 522.923 870.897C478.178 828.424 446.407 770.282 432.186 704.844C417.966 639.407 422.03 570.051 443.793 506.767C465.556 443.483 503.895 389.536 553.288 352.697L603.542 451.541C572.491 475.474 548.551 510.075 535.128 550.419C521.706 590.764 519.486 634.795 528.785 676.247C538.083 717.698 558.425 754.458 586.917 781.292C615.408 808.127 650.596 823.67 687.473 825.708C712.066 827.157 736.73 822.476 759.819 811.98L798.554 917.786C761.243 935.55 721.159 943.558 681.171 941.237L681.174 941.185Z" fill="#97004C"/>
<path d="M798.62 917.79C761.288 935.564 721.181 943.571 681.171 941.237C623.064 938.047 567.638 913.441 522.879 870.965C478.121 828.489 446.342 770.336 432.12 704.885C417.898 639.434 421.968 570.064 443.744 506.77C465.519 443.477 503.876 389.528 553.287 352.697L603.542 451.541C572.491 475.474 548.55 510.075 535.128 550.42C521.706 590.764 519.486 634.796 528.784 676.247C538.082 717.699 558.425 754.458 586.916 781.293C615.408 808.128 650.596 823.67 687.473 825.709C712.066 827.157 736.729 822.477 759.819 811.981L798.62 917.79Z" fill="#F2CFFF"/>
<path d="M408.987 605.515C404.876 678.769 421.432 751.175 456.131 811.694L169.035 565.327L168.803 565.134C130.614 534.807 99.7663 493.636 79.1088 445.421C48.7727 374.357 42.5674 292.197 61.7131 215.102C80.8589 138.007 123.97 71.5565 182.567 28.8208L544.464 337.996C505.45 367.229 472.815 406.737 449.258 453.254C425.701 499.772 411.897 551.963 408.987 605.515Z" fill="#FF74BA"/>
</svg>
