<svg width="1006" height="1026" viewBox="0 0 1006 1026" fill="none" xmlns="http://www.w3.org/2000/svg">
<path d="M319.095 858.138C413.187 839.711 524.695 793.269 633.056 727.301C741.418 661.332 833.963 583.669 893.56 508.585C955.015 431.138 974.44 364.73 948.345 321.675L877.367 205.06C851.155 161.946 783.272 148.674 686.194 167.763C592.135 186.172 480.62 232.639 372.233 298.601C263.847 364.563 171.333 442.207 111.73 517.316C80.3086 556.9 59.8899 593.575 50.9162 625.758C42.336 656.53 44.2428 683.182 57.0754 704.236L128.046 820.876C154.187 863.863 222.07 877.135 319.095 858.138ZM72.3577 694.783C50.6593 659.117 70.1025 598.477 125.741 528.4C184.06 454.934 274.888 378.74 381.506 313.86C488.123 248.979 597.539 203.341 689.501 185.28C777.324 168.093 840.135 178.697 861.833 214.362L906.454 287.716C871.433 273.229 820.485 271.749 757.02 284.255C662.928 302.683 551.438 349.156 443.052 415.118C334.666 481.08 242.152 558.725 182.548 633.833C151.134 673.393 130.708 710.093 121.735 742.275C119.331 750.741 117.726 759.414 116.94 768.179L72.3577 694.783ZM143.329 811.423C121.63 775.757 141.073 715.117 196.712 645.04C255.037 571.549 345.859 495.38 452.477 430.499C559.094 365.619 668.486 319.974 760.472 301.92C848.294 284.733 911.081 295.33 932.786 330.971C942.89 347.555 944.074 369.524 936.875 395.344C928.591 425.051 909.171 459.871 879.42 497.386C821.102 570.852 730.274 647.045 623.656 711.926C517.039 776.807 407.622 822.445 315.661 840.505C227.789 857.679 165.027 847.089 143.329 811.423Z" fill="#97004C"/>
<path d="M143.329 811.423C121.631 775.758 141.074 715.118 196.713 645.04C255.038 571.55 345.859 495.381 452.477 430.5C559.094 365.619 668.486 319.974 760.472 301.921C848.295 284.733 911.081 295.33 932.786 330.971C942.89 347.556 944.075 369.524 936.875 395.344C928.592 425.052 909.171 459.871 879.421 497.386C821.102 570.852 730.274 647.046 623.656 711.926C517.039 776.807 407.623 822.445 315.661 840.506C227.789 857.679 165.027 847.089 143.329 811.423Z" fill="#FF69B5"/>
<path d="M117.021 768.176L72.3577 694.783C50.6593 659.117 70.1025 598.478 125.741 528.4C184.06 454.934 274.888 378.741 381.506 313.86C488.123 248.979 597.539 203.341 689.501 185.28C777.324 168.093 840.135 178.697 861.833 214.363L906.454 287.716C871.433 273.229 820.485 271.75 757.02 284.256C662.928 302.683 551.438 349.156 443.052 415.118C334.666 481.08 242.151 558.725 182.548 633.834C151.134 673.393 130.708 710.093 121.735 742.276C119.359 750.743 117.781 759.414 117.021 768.176Z" fill="#F2CFFF"/>
</svg>
